<?xml version="1.0" encoding="UTF-8" standalone="no"?>
<!-- Created with Inkscape (http://www.inkscape.org/) -->

<svg
   xmlns:dc="http://purl.org/dc/elements/1.1/"
   xmlns:cc="http://creativecommons.org/ns#"
   xmlns:rdf="http://www.w3.org/1999/02/22-rdf-syntax-ns#"
   xmlns:svg="http://www.w3.org/2000/svg"
   xmlns="http://www.w3.org/2000/svg"
   xmlns:sodipodi="http://sodipodi.sourceforge.net/DTD/sodipodi-0.dtd"
   xmlns:inkscape="http://www.inkscape.org/namespaces/inkscape"
   version="1.1"
   id="svg2"
   xml:space="preserve"
   width="880"
   height="880"
   viewBox="0 0 880 880"
   sodipodi:docname="logo.svg"
   inkscape:version="0.92.3 (2405546, 2018-03-11)"><metadata
     id="metadata8"><rdf:RDF><cc:Work
         rdf:about=""><dc:format>image/svg+xml</dc:format><dc:type
           rdf:resource="http://purl.org/dc/dcmitype/StillImage" /><dc:title></dc:title></cc:Work></rdf:RDF></metadata><defs
     id="defs6"><clipPath
       clipPathUnits="userSpaceOnUse"
       id="clipPath18"><path
         d="M 0,660 H 660 V 0 H 0 Z"
         id="path16"
         inkscape:connector-curvature="0" /></clipPath></defs><sodipodi:namedview
     pagecolor="#ffffff"
     bordercolor="#666666"
     borderopacity="1"
     objecttolerance="10"
     gridtolerance="10"
     guidetolerance="10"
     inkscape:pageopacity="0"
     inkscape:pageshadow="2"
     inkscape:window-width="679"
     inkscape:window-height="480"
     id="namedview4"
     showgrid="false"
     inkscape:zoom="0.26818182"
     inkscape:cx="440"
     inkscape:cy="440"
     inkscape:window-x="0"
     inkscape:window-y="0"
     inkscape:window-maximized="0"
     inkscape:current-layer="g10" /><g
     id="g10"
     inkscape:groupmode="layer"
     inkscape:label="bench-in-the-park-publicdomainvectors.org"
     transform="matrix(1.3333333,0,0,-1.3333333,0,880)"><g
       id="g12"><g
         id="g14"
         clip-path="url(#clipPath18)"><path
           d="M 0,0 H 659.811 V 659.808 H 0 Z"
           style="fill:#52d9e3;fill-opacity:1;fill-rule:evenodd;stroke:none"
           id="path20"
           inkscape:connector-curvature="0" /><path
           d="M 659.811,559.476 V 417.904 h -7.304 v -42.561 h -65.411 v -2.689 h -43.011 v -60.035 h -61.824 v 22.402 h -59.139 v 23.296 h -7.168 v -47.489 h -57.347 v -87.81 H 226.893 v 28.491 h -36.739 v 41.399 h -12.543 v -0.895 H 89.8 v 58.24 H 46.79 v 54.658 H 0 v 171.142 h 11.845 v 21.057 h 35.841 v -21.057 h 14.336 v -30.465 h 21.505 v -8.96 h 17.921 v -26.881 h 25.088 v -65.41 h 22.401 v 57.345 h 10.752 v 20.609 h 35.843 v -20.609 h 10.751 v -83.33 h 20.61 v 155.013 h 9.855 v 34.945 h 72.578 v -16.128 h 25.09 v -18.817 h 24.191 V 473.01 h 32.258 v 23.297 h 10.753 v 19.712 h 24.641 v -19.712 h 7.615 v -19.713 h 8.513 v -30.465 h 39.874 v 34.945 h 34.943 v 23.297 h 25.09 v 39.425 h 30.466 v -39.425 h 14.336 v -20.609 h 27.776 v 31.809 h 16.13 v 43.905 z"
           style="fill:#2ec6d1;fill-opacity:1;fill-rule:evenodd;stroke:none"
           id="path22"
           inkscape:connector-curvature="0" /><path
           d="M 659.811,550.639 V 300.973 H 255.185 c -1.502,5.419 -2.307,11.127 -2.307,17.025 0,35.135 28.482,63.618 63.617,63.618 10.623,0 20.637,-2.605 29.44,-7.21 8.992,27.093 34.534,46.636 64.643,46.636 27.652,0 51.455,-16.484 62.12,-40.161 8.619,4.75 18.226,7.929 28.438,9.142 1.353,32.7 28.287,58.796 61.319,58.796 3.311,0 6.56,-0.266 9.727,-0.77 5.737,29.649 31.224,52.256 62.226,53.573 -1.05,3.572 -1.616,7.351 -1.616,11.263 0,17.522 11.306,32.404 27.019,37.754"
           style="fill:#77a128;fill-opacity:1;fill-rule:evenodd;stroke:none"
           id="path24"
           inkscape:connector-curvature="0" /><path
           d="m 520.343,323.373 c 15.908,0 29.683,-9.111 36.403,-22.4 H 407.51 c 8.556,21.522 29.571,36.737 54.14,36.737 16.506,0 31.407,-6.867 42.006,-17.898 5.092,2.289 10.74,3.561 16.687,3.561 M 0,300.973 v 186.075 c 6.12,1.366 12.481,2.092 19.013,2.092 48.002,0 86.915,-38.914 86.915,-86.915 0,-2.439 -0.102,-4.854 -0.299,-7.242 7.897,2.375 16.267,3.657 24.94,3.657 36.949,0 68.479,-23.178 80.859,-55.786 7.697,2.475 15.904,3.817 24.425,3.817 31.859,0 59.353,-18.688 72.126,-45.698 z"
           style="fill:#87b03c;fill-opacity:1;fill-rule:evenodd;stroke:none"
           id="path26"
           inkscape:connector-curvature="0" /><path
           d="M 0,0 H 659.811 V 300.973 H 0 Z"
           style="fill:#a6cf59;fill-opacity:1;fill-rule:evenodd;stroke:none"
           id="path28"
           inkscape:connector-curvature="0" /><path
           d="M 0,251.243 H 587.994 L 0,122.216 Z"
           style="fill:#2ec6d1;fill-opacity:1;fill-rule:evenodd;stroke:none"
           id="path30"
           inkscape:connector-curvature="0" /><path
           d="m 346.065,251.243 h 61.827 v -39.52 l -61.827,-13.568 z m -115.586,0 h 43.009 v -69.014 l -43.009,-9.438 z m -175.622,0 H 135.5 V 151.949 L 54.857,134.253 Z"
           style="fill:#3cd3de;fill-opacity:1;fill-rule:evenodd;stroke:none"
           id="path32"
           inkscape:connector-curvature="0" /><path
           d="m 0,251.243 h 490.294 c -1.33,-18.637 -43.933,-33.597 -96.29,-33.597 -40.613,0 -75.353,9.003 -89.517,21.739 -12.609,-5.863 -31.936,-9.614 -53.607,-9.614 -21.581,0 -40.838,3.721 -53.45,9.542 -8,-9.923 -33.701,-17.186 -64.171,-17.186 -17.494,0 -33.414,2.394 -45.317,6.311 -14.976,-6.103 -35.905,-9.896 -59.07,-9.896 -10.159,0 -19.886,0.732 -28.872,2.065 z"
           style="fill:#1bb2bd;fill-opacity:1;fill-rule:evenodd;stroke:none"
           id="path34"
           inkscape:connector-curvature="0" /><path
           d="m 0,251.243 h 619.354 v 14.79 H 0 Z"
           style="fill:#fbd08d;fill-opacity:1;fill-rule:evenodd;stroke:none"
           id="path36"
           inkscape:connector-curvature="0" /><path
           d="m 346.065,251.243 h 61.827 v -33.239 c -4.536,-0.234 -9.171,-0.358 -13.888,-0.358 -17.454,0 -33.82,1.665 -47.939,4.571 z m -115.586,0 h 43.009 v -20.048 c -7.081,-0.924 -14.686,-1.424 -22.608,-1.424 -7.104,0 -13.955,0.403 -20.401,1.151 z m -175.622,0 H 135.5 v -29.101 c -0.745,-0.009 -1.491,-0.015 -2.241,-0.015 -17.494,0 -33.414,2.394 -45.317,6.311 -9.106,-3.711 -20.413,-6.568 -33.085,-8.236 z"
           style="fill:#2ec6d1;fill-opacity:1;fill-rule:evenodd;stroke:none"
           id="path38"
           inkscape:connector-curvature="0" /><path
           d="M 659.811,282.604 0,180.116 V 0 h 659.811 z"
           style="fill:#88b82e;fill-opacity:1;fill-rule:evenodd;stroke:none"
           id="path40"
           inkscape:connector-curvature="0" /><path
           d="m 525.453,156.271 h 17.183 V 90.057 h -17.183 z m -239.309,0 h 17.183 V 90.057 h -17.183 z"
           style="fill:#472509;fill-opacity:1;fill-rule:evenodd;stroke:none"
           id="path42"
           inkscape:connector-curvature="0" /><path
           d="M 0,0 H 659.811 V 90.058 H 0 Z"
           style="fill:#77a128;fill-opacity:1;fill-rule:evenodd;stroke:none"
           id="path44"
           inkscape:connector-curvature="0" /><path
           d="m 533.115,156.271 h 18.366 V 90.057 h -18.366 z m -255.818,0 h 18.37 V 90.057 h -18.37 z"
           style="fill:#7d4518;fill-opacity:1;fill-rule:evenodd;stroke:none"
           id="path46"
           inkscape:connector-curvature="0" /><path
           d="m 533.115,156.271 h 18.366 v -19.266 h -18.366 z m -255.818,0 h 18.37 v -19.266 h -18.37 z"
           style="fill:#61330d;fill-opacity:1;fill-rule:evenodd;stroke:none"
           id="path48"
           inkscape:connector-curvature="0" /><path
           d="m 257.809,148.656 h 313.163 v 13.886 H 257.809 Z"
           style="fill:#9d5f2b;fill-opacity:1;fill-rule:evenodd;stroke:none"
           id="path50"
           inkscape:connector-curvature="0" /><path
           d="m 257.809,168.537 h 313.163 v 11.479 H 257.809 Z"
           style="fill:#61330d;fill-opacity:1;fill-rule:evenodd;stroke:none"
           id="path52"
           inkscape:connector-curvature="0" /><path
           d="m 257.809,180.015 h 313.163 v 2.411 H 257.809 Z"
           style="fill:#7d4518;fill-opacity:1;fill-rule:evenodd;stroke:none"
           id="path54"
           inkscape:connector-curvature="0" /><path
           d="M 257.809,203.76 H 570.972 V 192.282 H 257.809 Z"
           style="fill:#61330d;fill-opacity:1;fill-rule:evenodd;stroke:none"
           id="path56"
           inkscape:connector-curvature="0" /><path
           d="m 257.809,203.76 h 313.163 v 2.411 H 257.809 Z"
           style="fill:#7d4518;fill-opacity:1;fill-rule:evenodd;stroke:none"
           id="path58"
           inkscape:connector-curvature="0" /><path
           d="m 257.809,216.026 h 313.163 v 11.479 H 257.809 Z"
           style="fill:#61330d;fill-opacity:1;fill-rule:evenodd;stroke:none"
           id="path60"
           inkscape:connector-curvature="0" /><path
           d="m 257.809,227.504 h 313.163 v 2.41 H 257.809 Z"
           style="fill:#7d4518;fill-opacity:1;fill-rule:evenodd;stroke:none"
           id="path62"
           inkscape:connector-curvature="0" /><path
           d="m 306.867,227.505 h 14.784 v -71.233 h -14.784 z m 200.263,0 h 14.785 V 156.272 H 507.13 Z"
           style="fill:#9d5f2b;fill-opacity:1;fill-rule:evenodd;stroke:none"
           id="path64"
           inkscape:connector-curvature="0" /><path
           d="m 507.13,227.505 h 14.785 v -3.022 H 507.13 Z m -200.263,0 h 14.784 v -3.022 h -14.784 z"
           style="fill:#c9854e;fill-opacity:1;fill-rule:evenodd;stroke:none"
           id="path66"
           inkscape:connector-curvature="0" /><path
           d="M 358.392,0 H 0 v 164.98 c 23.318,-7.343 40.255,-29.074 40.407,-54.782 27.979,-8.295 48.391,-34.193 48.391,-64.863 0,-4.421 -0.429,-8.741 -1.239,-12.927 9.146,7.782 20.996,12.479 33.944,12.479 10.396,0 20.085,-3.026 28.234,-8.246 5.498,34.636 35.492,61.112 71.674,61.112 30.817,0 57.143,-19.207 67.671,-46.301 4.165,0.98 8.507,1.499 12.971,1.499 30.001,0 54.532,-23.404 56.339,-52.951 M 659.811,181.235 V 0 H 469.267 c 4.126,31.399 30.988,55.641 63.515,55.641 7.87,0 15.409,-1.424 22.375,-4.023 9.368,29.996 35.693,52.505 67.747,56.314 -3.482,6.907 -5.448,14.71 -5.448,22.972 0,25.237 18.3,46.193 42.355,50.331"
           style="fill:#46660b;fill-opacity:1;fill-rule:evenodd;stroke:none"
           id="path68"
           inkscape:connector-curvature="0" /><path
           d="m 252.82,25.037 c 0,0.6 -0.087,1.116 -0.262,1.541 -0.174,0.43 -0.414,0.76 -0.73,0.994 -0.308,0.229 -0.65,0.343 -1.029,0.343 -0.595,0 -1.101,-0.249 -1.515,-0.737 -0.408,-0.5 -0.618,-1.218 -0.618,-2.176 0,-0.906 0.21,-1.604 0.614,-2.102 0.411,-0.501 0.915,-0.755 1.519,-0.755 0.362,0 0.698,0.11 1.007,0.332 0.3,0.219 0.549,0.546 0.735,0.98 0.188,0.442 0.279,0.966 0.279,1.58 m -4.253,3.304 v -0.277 c 0.407,0.524 0.832,0.915 1.27,1.16 0.441,0.249 0.941,0.37 1.497,0.37 0.667,0 1.28,-0.183 1.845,-0.539 0.56,-0.36 1.006,-0.883 1.332,-1.578 0.324,-0.689 0.491,-1.509 0.491,-2.455 0,-0.694 -0.099,-1.34 -0.286,-1.916 -0.184,-0.586 -0.445,-1.081 -0.773,-1.473 -0.33,-0.4 -0.719,-0.703 -1.167,-0.911 -0.447,-0.218 -0.93,-0.32 -1.442,-0.32 -0.622,0 -1.142,0.126 -1.563,0.387 -0.426,0.261 -0.825,0.639 -1.204,1.142 v -3.399 c 0,-0.996 -0.349,-1.491 -1.043,-1.491 -0.407,0 -0.679,0.124 -0.808,0.381 -0.135,0.26 -0.198,0.636 -0.198,1.129 v 9.774 c 0,0.429 0.086,0.756 0.269,0.966 0.182,0.211 0.429,0.322 0.737,0.322 0.311,0 0.56,-0.111 0.752,-0.331 0.193,-0.219 0.291,-0.536 0.291,-0.941"
           style="fill:#ffffff;fill-opacity:1;fill-rule:nonzero;stroke:none"
           id="path70"
           inkscape:connector-curvature="0" /><path
           d="m 262.382,21.68 v 0.288 c -0.264,-0.344 -0.536,-0.631 -0.823,-0.862 -0.285,-0.235 -0.6,-0.404 -0.934,-0.519 -0.345,-0.114 -0.73,-0.169 -1.163,-0.169 -0.524,0 -0.993,0.114 -1.41,0.339 -0.419,0.225 -0.739,0.54 -0.968,0.937 -0.272,0.482 -0.405,1.172 -0.405,2.071 v 4.488 c 0,0.455 0.099,0.793 0.296,1.018 0.197,0.219 0.452,0.333 0.776,0.333 0.332,0 0.596,-0.114 0.797,-0.342 0.199,-0.224 0.3,-0.563 0.3,-1.009 v -3.626 c 0,-0.523 0.043,-0.966 0.126,-1.318 0.086,-0.362 0.236,-0.641 0.464,-0.842 0.212,-0.2 0.512,-0.298 0.887,-0.298 0.371,0 0.718,0.112 1.033,0.339 0.328,0.223 0.564,0.518 0.713,0.882 0.123,0.322 0.182,1.025 0.182,2.112 v 2.751 c 0,0.446 0.102,0.785 0.302,1.009 0.196,0.228 0.462,0.342 0.786,0.342 0.322,0 0.582,-0.114 0.78,-0.333 0.192,-0.225 0.291,-0.563 0.291,-1.018 v -6.559 c 0,-0.432 -0.091,-0.756 -0.284,-0.968 -0.186,-0.218 -0.426,-0.324 -0.726,-0.324 -0.295,0 -0.54,0.115 -0.731,0.332 -0.195,0.229 -0.289,0.539 -0.289,0.946"
           style="fill:#ffffff;fill-opacity:1;fill-rule:nonzero;stroke:none"
           id="path72"
           inkscape:connector-curvature="0" /><path
           d="m 268.679,24.951 c 0,-0.903 0.19,-1.594 0.586,-2.077 0.398,-0.48 0.914,-0.729 1.555,-0.729 0.548,0 1.017,0.249 1.411,0.744 0.4,0.497 0.596,1.203 0.596,2.125 0,0.606 -0.084,1.119 -0.248,1.548 -0.166,0.433 -0.4,0.765 -0.697,0.999 -0.309,0.236 -0.658,0.354 -1.062,0.354 -0.417,0 -0.78,-0.118 -1.102,-0.354 -0.328,-0.234 -0.58,-0.574 -0.766,-1.022 -0.183,-0.442 -0.273,-0.971 -0.273,-1.588 m -0.108,6.731 v -3.459 c 0.405,0.444 0.823,0.78 1.244,1.019 0.426,0.237 0.955,0.352 1.577,0.352 0.722,0 1.351,-0.183 1.896,-0.531 0.543,-0.364 0.965,-0.88 1.266,-1.554 0.3,-0.678 0.449,-1.482 0.449,-2.412 0,-0.686 -0.082,-1.318 -0.249,-1.888 -0.169,-0.571 -0.409,-1.068 -0.728,-1.49 -0.319,-0.417 -0.705,-0.74 -1.155,-0.977 -0.458,-0.225 -0.958,-0.34 -1.503,-0.34 -0.329,0 -0.645,0.04 -0.941,0.124 -0.295,0.081 -0.549,0.188 -0.754,0.328 -0.204,0.128 -0.381,0.274 -0.528,0.416 -0.145,0.147 -0.333,0.359 -0.574,0.646 v -0.222 c 0,-0.428 -0.101,-0.748 -0.296,-0.968 -0.196,-0.218 -0.446,-0.324 -0.745,-0.324 -0.311,0 -0.551,0.106 -0.737,0.324 -0.183,0.225 -0.272,0.544 -0.272,0.968 v 9.89 c 0,0.457 0.086,0.801 0.263,1.037 0.182,0.236 0.426,0.355 0.746,0.355 0.33,0 0.59,-0.114 0.768,-0.34 0.181,-0.224 0.273,-0.54 0.273,-0.954"
           style="fill:#ffffff;fill-opacity:1;fill-rule:nonzero;stroke:none"
           id="path74"
           inkscape:connector-curvature="0" /><path
           d="m 276.531,21.778 v 9.819 c 0,0.457 0.098,0.799 0.288,1.031 0.198,0.229 0.459,0.348 0.785,0.348 0.331,0 0.595,-0.114 0.797,-0.348 0.196,-0.225 0.304,-0.571 0.304,-1.031 v -9.819 c 0,-0.462 -0.108,-0.807 -0.309,-1.036 -0.206,-0.225 -0.469,-0.34 -0.792,-0.34 -0.316,0 -0.572,0.119 -0.773,0.355 -0.202,0.239 -0.3,0.576 -0.3,1.021"
           style="fill:#ffffff;fill-opacity:1;fill-rule:nonzero;stroke:none"
           id="path76"
           inkscape:connector-curvature="0" /><path
           d="m 283.114,28.316 v -6.538 c 0,-0.457 -0.106,-0.799 -0.308,-1.032 -0.208,-0.225 -0.473,-0.344 -0.787,-0.344 -0.321,0 -0.577,0.119 -0.777,0.351 -0.198,0.243 -0.3,0.58 -0.3,1.025 v 6.475 c 0,0.446 0.102,0.785 0.3,1.009 0.2,0.228 0.456,0.342 0.777,0.342 0.316,0 0.579,-0.114 0.787,-0.342 0.202,-0.224 0.308,-0.539 0.308,-0.946 m -1.076,2.347 c -0.299,0 -0.556,0.093 -0.775,0.291 -0.21,0.193 -0.321,0.473 -0.321,0.823 0,0.319 0.111,0.584 0.332,0.793 0.215,0.208 0.473,0.306 0.764,0.306 0.28,0 0.531,-0.09 0.749,-0.279 0.218,-0.185 0.327,-0.465 0.327,-0.82 0,-0.35 -0.109,-0.623 -0.32,-0.817 -0.211,-0.196 -0.465,-0.297 -0.756,-0.297"
           style="fill:#ffffff;fill-opacity:1;fill-rule:nonzero;stroke:none"
           id="path78"
           inkscape:connector-curvature="0" /><path
           d="m 293.125,23.2 c 0,-0.278 -0.079,-0.579 -0.236,-0.896 -0.165,-0.325 -0.413,-0.629 -0.746,-0.919 -0.33,-0.29 -0.747,-0.525 -1.247,-0.699 -0.505,-0.182 -1.072,-0.268 -1.701,-0.268 -1.342,0 -2.387,0.409 -3.14,1.222 -0.753,0.816 -1.128,1.907 -1.128,3.279 0,0.927 0.17,1.755 0.512,2.464 0.343,0.709 0.848,1.265 1.495,1.655 0.649,0.39 1.43,0.583 2.337,0.583 0.564,0 1.081,-0.086 1.548,-0.251 0.469,-0.176 0.868,-0.398 1.19,-0.667 0.328,-0.272 0.576,-0.559 0.749,-0.867 0.174,-0.308 0.258,-0.592 0.258,-0.859 0,-0.269 -0.101,-0.497 -0.288,-0.687 -0.198,-0.188 -0.426,-0.282 -0.706,-0.282 -0.181,0 -0.332,0.054 -0.45,0.148 -0.118,0.096 -0.253,0.244 -0.403,0.466 -0.264,0.418 -0.539,0.736 -0.832,0.95 -0.285,0.208 -0.652,0.319 -1.094,0.319 -0.646,0 -1.164,-0.268 -1.554,-0.787 -0.393,-0.53 -0.587,-1.239 -0.587,-2.149 0,-0.424 0.053,-0.819 0.151,-1.176 0.101,-0.358 0.248,-0.658 0.436,-0.913 0.194,-0.252 0.419,-0.442 0.696,-0.568 0.265,-0.135 0.566,-0.201 0.886,-0.201 0.437,0 0.807,0.107 1.12,0.314 0.305,0.215 0.582,0.536 0.819,0.963 0.134,0.261 0.275,0.458 0.43,0.603 0.154,0.146 0.346,0.21 0.568,0.21 0.263,0 0.483,-0.1 0.656,-0.308 0.174,-0.218 0.261,-0.438 0.261,-0.679"
           style="fill:#ffffff;fill-opacity:1;fill-rule:nonzero;stroke:none"
           id="path80"
           inkscape:connector-curvature="0" /><path
           d="m 296.7,25.014 c 0,-0.611 0.095,-1.133 0.276,-1.565 0.181,-0.434 0.429,-0.753 0.746,-0.972 0.322,-0.222 0.668,-0.332 1.039,-0.332 0.386,0 0.732,0.105 1.049,0.311 0.315,0.208 0.564,0.528 0.755,0.958 0.188,0.425 0.282,0.961 0.282,1.6 0,0.606 -0.094,1.123 -0.282,1.56 -0.191,0.434 -0.444,0.764 -0.763,0.998 -0.32,0.229 -0.67,0.343 -1.053,0.343 -0.394,0 -0.75,-0.118 -1.063,-0.354 -0.313,-0.234 -0.556,-0.574 -0.726,-1.013 -0.172,-0.444 -0.26,-0.946 -0.26,-1.534 m 4.265,-3.32 v 0.222 c -0.292,-0.351 -0.579,-0.63 -0.862,-0.848 -0.282,-0.219 -0.588,-0.385 -0.924,-0.501 -0.326,-0.108 -0.69,-0.165 -1.078,-0.165 -0.524,0 -1.007,0.115 -1.444,0.34 -0.443,0.237 -0.829,0.56 -1.146,0.985 -0.324,0.425 -0.573,0.927 -0.74,1.502 -0.167,0.574 -0.25,1.194 -0.25,1.868 0,1.414 0.331,2.522 0.992,3.309 0.668,0.793 1.537,1.188 2.613,1.188 0.627,0 1.156,-0.115 1.586,-0.344 0.426,-0.216 0.846,-0.562 1.253,-1.027 v 3.342 c 0,0.463 0.091,0.816 0.266,1.052 0.18,0.24 0.428,0.359 0.758,0.359 0.327,0 0.579,-0.11 0.761,-0.329 0.178,-0.215 0.269,-0.539 0.269,-0.965 v -9.988 c 0,-0.432 -0.099,-0.756 -0.29,-0.968 -0.193,-0.218 -0.435,-0.324 -0.74,-0.324 -0.291,0 -0.539,0.106 -0.737,0.332 -0.189,0.224 -0.287,0.539 -0.287,0.96"
           style="fill:#ffffff;fill-opacity:1;fill-rule:nonzero;stroke:none"
           id="path82"
           inkscape:connector-curvature="0" /><path
           d="m 311.14,24.999 c 0,0.918 -0.196,1.639 -0.586,2.155 -0.389,0.512 -0.914,0.774 -1.569,0.774 -0.425,0 -0.795,-0.119 -1.125,-0.349 -0.316,-0.232 -0.568,-0.571 -0.742,-1.017 -0.18,-0.445 -0.264,-0.964 -0.264,-1.563 0,-0.592 0.084,-1.107 0.258,-1.55 0.174,-0.442 0.418,-0.781 0.742,-1.016 0.319,-0.233 0.698,-0.352 1.131,-0.352 0.655,0 1.18,0.257 1.569,0.773 0.39,0.516 0.586,1.233 0.586,2.145 m 2.177,0 c 0,-0.671 -0.102,-1.294 -0.304,-1.87 -0.201,-0.563 -0.492,-1.052 -0.87,-1.461 -0.382,-0.414 -0.84,-0.717 -1.368,-0.942 -0.534,-0.218 -1.131,-0.324 -1.79,-0.324 -0.658,0 -1.244,0.106 -1.775,0.328 -0.523,0.221 -0.977,0.54 -1.363,0.95 -0.382,0.413 -0.674,0.898 -0.873,1.458 -0.198,0.563 -0.297,1.181 -0.297,1.864 0,0.686 0.103,1.313 0.301,1.88 0.204,0.572 0.491,1.057 0.865,1.463 0.381,0.401 0.833,0.714 1.367,0.929 0.537,0.221 1.129,0.33 1.775,0.33 0.659,0 1.252,-0.109 1.79,-0.333 0.532,-0.216 0.99,-0.537 1.371,-0.946 0.382,-0.41 0.673,-0.895 0.871,-1.462 0.202,-0.56 0.3,-1.186 0.3,-1.864"
           style="fill:#ffffff;fill-opacity:1;fill-rule:nonzero;stroke:none"
           id="path84"
           inkscape:connector-curvature="0" /><path
           d="m 322.481,26.871 c -0.161,-0.387 -0.24,-1.061 -0.24,-2.034 v -3.008 c 0,-0.474 -0.103,-0.833 -0.312,-1.072 -0.205,-0.236 -0.482,-0.355 -0.82,-0.355 -0.327,0 -0.591,0.119 -0.793,0.355 -0.204,0.239 -0.307,0.598 -0.307,1.072 v 3.611 c 0,0.568 -0.02,1.007 -0.059,1.328 -0.036,0.311 -0.137,0.57 -0.301,0.776 -0.161,0.202 -0.423,0.304 -0.775,0.304 -0.709,0 -1.174,-0.253 -1.403,-0.769 -0.225,-0.505 -0.335,-1.237 -0.335,-2.187 v -3.063 c 0,-0.474 -0.102,-0.833 -0.307,-1.064 -0.205,-0.244 -0.473,-0.363 -0.805,-0.363 -0.332,0 -0.601,0.119 -0.808,0.363 -0.213,0.231 -0.312,0.59 -0.312,1.06 v 6.484 c 0,0.425 0.092,0.75 0.278,0.969 0.191,0.221 0.436,0.335 0.744,0.335 0.296,0 0.544,-0.106 0.746,-0.31 0.195,-0.21 0.294,-0.493 0.294,-0.861 v -0.217 c 0.377,0.474 0.781,0.817 1.206,1.037 0.43,0.222 0.909,0.332 1.431,0.332 0.548,0 1.013,-0.115 1.408,-0.344 0.393,-0.22 0.713,-0.566 0.965,-1.025 0.367,0.463 0.761,0.813 1.179,1.034 0.42,0.225 0.881,0.335 1.387,0.335 0.6,0 1.107,-0.115 1.536,-0.365 0.431,-0.242 0.749,-0.588 0.963,-1.046 0.186,-0.411 0.28,-1.053 0.28,-1.931 v -4.423 c 0,-0.474 -0.105,-0.833 -0.308,-1.072 -0.213,-0.236 -0.481,-0.355 -0.823,-0.355 -0.328,0 -0.597,0.119 -0.804,0.363 -0.212,0.231 -0.319,0.59 -0.319,1.064 v 3.808 c 0,0.488 -0.017,0.878 -0.056,1.17 -0.041,0.297 -0.149,0.54 -0.323,0.742 -0.172,0.197 -0.441,0.299 -0.796,0.299 -0.284,0 -0.557,-0.09 -0.808,-0.265 -0.265,-0.182 -0.463,-0.414 -0.603,-0.712"
           style="fill:#ffffff;fill-opacity:1;fill-rule:nonzero;stroke:none"
           id="path86"
           inkscape:connector-curvature="0" /><path
           d="m 334.77,24.955 c -0.324,-0.122 -0.783,-0.253 -1.39,-0.388 -0.608,-0.135 -1.031,-0.235 -1.262,-0.298 -0.232,-0.068 -0.453,-0.19 -0.667,-0.37 -0.212,-0.189 -0.319,-0.45 -0.319,-0.781 0,-0.347 0.127,-0.639 0.375,-0.878 0.248,-0.242 0.576,-0.364 0.976,-0.364 0.43,0 0.83,0.103 1.192,0.3 0.363,0.193 0.633,0.45 0.797,0.76 0.196,0.339 0.298,0.903 0.298,1.695 z m 0.139,-3.28 c -0.524,-0.426 -1.034,-0.745 -1.521,-0.953 -0.491,-0.218 -1.042,-0.32 -1.649,-0.32 -0.56,0 -1.044,0.115 -1.466,0.34 -0.425,0.229 -0.749,0.544 -0.978,0.938 -0.224,0.389 -0.343,0.815 -0.343,1.278 0,0.617 0.194,1.141 0.569,1.583 0.375,0.435 0.89,0.725 1.544,0.879 0.142,0.031 0.485,0.102 1.029,0.217 0.548,0.122 1.014,0.228 1.407,0.323 0.387,0.095 0.812,0.212 1.269,0.35 -0.031,0.6 -0.146,1.037 -0.346,1.322 -0.204,0.274 -0.63,0.413 -1.269,0.413 -0.552,0 -0.966,-0.078 -1.25,-0.24 -0.277,-0.159 -0.512,-0.404 -0.713,-0.726 -0.199,-0.32 -0.336,-0.528 -0.418,-0.632 -0.086,-0.105 -0.26,-0.149 -0.529,-0.149 -0.248,0 -0.456,0.078 -0.63,0.241 -0.181,0.163 -0.272,0.371 -0.272,0.63 0,0.397 0.137,0.785 0.41,1.156 0.269,0.378 0.69,0.687 1.262,0.934 0.57,0.243 1.285,0.362 2.14,0.362 0.953,0 1.702,-0.119 2.25,-0.35 0.545,-0.233 0.926,-0.604 1.151,-1.116 0.228,-0.509 0.341,-1.181 0.341,-2.022 0,-0.531 0,-0.986 -0.003,-1.355 -0.006,-0.371 -0.006,-0.784 -0.014,-1.239 0,-0.421 0.071,-0.871 0.205,-1.327 0.131,-0.463 0.2,-0.76 0.2,-0.891 0,-0.233 -0.105,-0.446 -0.315,-0.635 -0.204,-0.189 -0.442,-0.284 -0.709,-0.284 -0.221,0 -0.437,0.106 -0.663,0.324 -0.212,0.22 -0.447,0.536 -0.689,0.949"
           style="fill:#ffffff;fill-opacity:1;fill-rule:nonzero;stroke:none"
           id="path88"
           inkscape:connector-curvature="0" /><path
           d="m 341.272,28.316 v -6.538 c 0,-0.457 -0.105,-0.799 -0.309,-1.032 -0.206,-0.225 -0.47,-0.344 -0.785,-0.344 -0.32,0 -0.579,0.119 -0.777,0.351 -0.201,0.243 -0.298,0.58 -0.298,1.025 v 6.475 c 0,0.446 0.098,0.785 0.298,1.009 0.198,0.228 0.457,0.342 0.777,0.342 0.315,0 0.579,-0.114 0.785,-0.342 0.204,-0.224 0.309,-0.539 0.309,-0.946 m -1.076,2.347 c -0.298,0 -0.552,0.093 -0.771,0.291 -0.213,0.193 -0.322,0.473 -0.322,0.823 0,0.319 0.109,0.584 0.335,0.793 0.215,0.208 0.471,0.306 0.758,0.306 0.282,0 0.534,-0.09 0.749,-0.279 0.218,-0.185 0.327,-0.465 0.327,-0.82 0,-0.35 -0.105,-0.623 -0.318,-0.817 -0.213,-0.196 -0.465,-0.297 -0.758,-0.297"
           style="fill:#ffffff;fill-opacity:1;fill-rule:nonzero;stroke:none"
           id="path90"
           inkscape:connector-curvature="0" /><path
           d="M 345.487,28.352 V 28.08 c 0.379,0.524 0.795,0.911 1.249,1.155 0.453,0.244 0.969,0.369 1.566,0.369 0.566,0 1.078,-0.125 1.533,-0.392 0.445,-0.257 0.787,-0.624 1.009,-1.097 0.141,-0.279 0.232,-0.579 0.275,-0.897 0.038,-0.321 0.068,-0.731 0.068,-1.227 v -4.213 c 0,-0.457 -0.107,-0.799 -0.301,-1.032 -0.2,-0.225 -0.46,-0.344 -0.776,-0.344 -0.32,0 -0.583,0.119 -0.78,0.355 -0.202,0.239 -0.307,0.576 -0.307,1.021 v 3.768 c 0,0.752 -0.095,1.325 -0.291,1.719 -0.206,0.393 -0.605,0.59 -1.201,0.59 -0.381,0 -0.731,-0.118 -1.051,-0.362 -0.32,-0.236 -0.552,-0.569 -0.698,-0.989 -0.107,-0.336 -0.16,-0.966 -0.16,-1.896 v -2.83 c 0,-0.462 -0.103,-0.807 -0.309,-1.036 -0.205,-0.225 -0.468,-0.34 -0.788,-0.34 -0.311,0 -0.571,0.119 -0.772,0.351 -0.205,0.243 -0.304,0.58 -0.304,1.025 v 6.538 c 0,0.438 0.091,0.754 0.273,0.97 0.177,0.213 0.428,0.318 0.741,0.318 0.188,0 0.362,-0.05 0.513,-0.14 0.156,-0.091 0.275,-0.236 0.37,-0.422 0.091,-0.189 0.141,-0.418 0.141,-0.69"
           style="fill:#ffffff;fill-opacity:1;fill-rule:nonzero;stroke:none"
           id="path92"
           inkscape:connector-curvature="0" /><path
           d="m 354.666,28.194 1.755,-5.14 1.891,5.364 c 0.151,0.435 0.296,0.734 0.438,0.92 0.146,0.177 0.361,0.266 0.65,0.266 0.276,0 0.512,-0.097 0.71,-0.291 0.19,-0.191 0.287,-0.414 0.287,-0.672 0,-0.1 -0.02,-0.214 -0.055,-0.343 -0.032,-0.135 -0.071,-0.261 -0.118,-0.38 -0.043,-0.113 -0.091,-0.248 -0.155,-0.393 l -2.079,-5.392 c -0.059,-0.154 -0.138,-0.355 -0.23,-0.591 -0.094,-0.237 -0.196,-0.436 -0.308,-0.612 -0.116,-0.165 -0.255,-0.295 -0.42,-0.39 -0.171,-0.094 -0.375,-0.138 -0.611,-0.138 -0.308,0 -0.553,0.071 -0.738,0.218 -0.185,0.145 -0.319,0.302 -0.406,0.479 -0.086,0.174 -0.231,0.517 -0.442,1.034 l -2.064,5.332 c -0.052,0.13 -0.098,0.264 -0.154,0.399 -0.047,0.128 -0.083,0.263 -0.122,0.407 -0.032,0.135 -0.051,0.253 -0.051,0.353 0,0.157 0.042,0.312 0.134,0.461 0.09,0.155 0.221,0.279 0.374,0.375 0.162,0.094 0.331,0.144 0.52,0.144 0.358,0 0.603,-0.105 0.741,-0.326 0.135,-0.212 0.288,-0.575 0.453,-1.084"
           style="fill:#ffffff;fill-opacity:1;fill-rule:nonzero;stroke:none"
           id="path94"
           inkscape:connector-curvature="0" /><path
           d="m 363.542,25.734 h 3.935 c -0.051,0.773 -0.253,1.353 -0.604,1.735 -0.347,0.382 -0.805,0.576 -1.367,0.576 -0.541,0 -0.985,-0.194 -1.333,-0.584 -0.347,-0.386 -0.555,-0.965 -0.631,-1.727 m 4.246,-1.284 h -4.246 c 0,-0.52 0.103,-0.969 0.292,-1.368 0.202,-0.386 0.457,-0.683 0.776,-0.882 0.32,-0.202 0.675,-0.3 1.061,-0.3 0.261,0 0.496,0.031 0.713,0.094 0.214,0.068 0.423,0.166 0.628,0.3 0.196,0.134 0.379,0.276 0.551,0.437 0.166,0.156 0.394,0.36 0.658,0.626 0.114,0.104 0.272,0.151 0.476,0.151 0.227,0 0.406,-0.059 0.541,-0.189 0.142,-0.127 0.209,-0.306 0.209,-0.536 0,-0.205 -0.079,-0.445 -0.232,-0.721 -0.154,-0.272 -0.383,-0.537 -0.694,-0.789 -0.311,-0.252 -0.703,-0.458 -1.17,-0.627 -0.465,-0.165 -1.002,-0.244 -1.617,-0.244 -1.395,0 -2.479,0.413 -3.247,1.238 -0.773,0.837 -1.16,1.958 -1.16,3.374 0,0.677 0.095,1.296 0.285,1.864 0.193,0.576 0.467,1.068 0.834,1.474 0.363,0.411 0.813,0.729 1.349,0.943 0.54,0.22 1.131,0.326 1.785,0.326 0.841,0 1.568,-0.185 2.176,-0.558 0.606,-0.375 1.064,-0.852 1.364,-1.444 0.303,-0.595 0.453,-1.194 0.453,-1.813 0,-0.568 -0.154,-0.938 -0.466,-1.104 -0.318,-0.171 -0.752,-0.252 -1.319,-0.252"
           style="fill:#ffffff;fill-opacity:1;fill-rule:nonzero;stroke:none"
           id="path96"
           inkscape:connector-curvature="0" /><path
           d="m 379.187,23.2 c 0,-0.278 -0.083,-0.579 -0.246,-0.896 -0.165,-0.325 -0.405,-0.629 -0.741,-0.919 -0.326,-0.29 -0.748,-0.525 -1.254,-0.699 -0.5,-0.182 -1.072,-0.268 -1.698,-0.268 -1.344,0 -2.388,0.409 -3.137,1.222 -0.752,0.816 -1.131,1.907 -1.131,3.279 0,0.927 0.17,1.755 0.516,2.464 0.347,0.709 0.84,1.265 1.493,1.655 0.652,0.39 1.432,0.583 2.338,0.583 0.564,0 1.077,-0.085 1.548,-0.251 0.467,-0.176 0.865,-0.398 1.191,-0.667 0.328,-0.272 0.577,-0.559 0.748,-0.867 0.17,-0.308 0.258,-0.592 0.258,-0.859 0,-0.269 -0.095,-0.497 -0.296,-0.687 -0.189,-0.188 -0.422,-0.282 -0.698,-0.282 -0.182,0 -0.331,0.054 -0.445,0.148 -0.122,0.096 -0.256,0.244 -0.405,0.466 -0.265,0.418 -0.541,0.736 -0.828,0.95 -0.294,0.208 -0.659,0.319 -1.104,0.319 -0.639,0 -1.158,-0.268 -1.548,-0.787 -0.394,-0.53 -0.589,-1.239 -0.589,-2.149 0,-0.424 0.052,-0.819 0.151,-1.176 0.101,-0.358 0.249,-0.658 0.438,-0.913 0.191,-0.252 0.421,-0.442 0.693,-0.568 0.263,-0.135 0.563,-0.201 0.886,-0.201 0.433,0 0.813,0.107 1.119,0.314 0.308,0.215 0.584,0.536 0.825,0.963 0.129,0.261 0.275,0.458 0.429,0.603 0.15,0.146 0.339,0.21 0.564,0.21 0.26,0 0.484,-0.1 0.653,-0.308 0.18,-0.218 0.27,-0.438 0.27,-0.679"
           style="fill:#ffffff;fill-opacity:1;fill-rule:nonzero;stroke:none"
           id="path98"
           inkscape:connector-curvature="0" /><path
           d="m 381.2,29.411 h 0.24 v 1.366 c 0,0.358 0.008,0.65 0.028,0.858 0.019,0.206 0.067,0.383 0.154,0.534 0.082,0.152 0.208,0.279 0.366,0.376 0.158,0.095 0.335,0.142 0.533,0.142 0.271,0 0.523,-0.11 0.744,-0.319 0.146,-0.148 0.241,-0.323 0.279,-0.527 0.046,-0.206 0.06,-0.505 0.06,-0.887 v -1.543 h 0.8 c 0.308,0 0.54,-0.073 0.702,-0.228 0.166,-0.149 0.245,-0.343 0.245,-0.579 0,-0.306 -0.116,-0.524 -0.351,-0.641 -0.225,-0.119 -0.557,-0.183 -0.985,-0.183 h -0.411 v -4.17 c 0,-0.354 0.011,-0.626 0.04,-0.819 0.023,-0.193 0.09,-0.347 0.194,-0.461 0.101,-0.122 0.266,-0.185 0.506,-0.185 0.124,0 0.293,0.024 0.513,0.075 0.214,0.042 0.383,0.065 0.509,0.065 0.175,0 0.334,-0.073 0.473,-0.216 0.139,-0.145 0.209,-0.327 0.209,-0.544 0,-0.363 -0.185,-0.642 -0.568,-0.836 -0.391,-0.192 -0.933,-0.287 -1.647,-0.287 -0.678,0 -1.193,0.119 -1.544,0.355 -0.349,0.239 -0.579,0.564 -0.687,0.99 -0.11,0.422 -0.162,0.982 -0.162,1.682 v 4.351 h -0.291 c -0.308,0 -0.545,0.075 -0.71,0.233 -0.165,0.155 -0.249,0.35 -0.249,0.591 0,0.236 0.087,0.43 0.258,0.579 0.173,0.155 0.426,0.228 0.752,0.228"
           style="fill:#ffffff;fill-opacity:1;fill-rule:nonzero;stroke:none"
           id="path100"
           inkscape:connector-curvature="0" /><path
           d="m 392.784,24.999 c 0,0.918 -0.198,1.639 -0.584,2.155 -0.394,0.512 -0.914,0.774 -1.573,0.774 -0.421,0 -0.795,-0.119 -1.119,-0.349 -0.321,-0.232 -0.57,-0.571 -0.743,-1.017 -0.18,-0.445 -0.265,-0.964 -0.265,-1.563 0,-0.592 0.085,-1.107 0.26,-1.55 0.174,-0.442 0.418,-0.781 0.736,-1.016 0.319,-0.233 0.694,-0.352 1.131,-0.352 0.659,0 1.179,0.257 1.573,0.773 0.386,0.516 0.584,1.233 0.584,2.145 m 2.179,0 c 0,-0.671 -0.102,-1.294 -0.308,-1.87 -0.195,-0.563 -0.492,-1.052 -0.871,-1.461 -0.381,-0.414 -0.839,-0.717 -1.367,-0.942 -0.527,-0.218 -1.12,-0.324 -1.79,-0.324 -0.656,0 -1.249,0.106 -1.773,0.328 -0.52,0.221 -0.976,0.54 -1.36,0.95 -0.381,0.413 -0.674,0.898 -0.87,1.458 -0.202,0.563 -0.3,1.181 -0.3,1.864 0,0.686 0.098,1.313 0.3,1.88 0.204,0.572 0.49,1.057 0.865,1.463 0.38,0.401 0.833,0.714 1.365,0.929 0.544,0.221 1.132,0.33 1.773,0.33 0.659,0 1.254,-0.109 1.79,-0.333 0.536,-0.216 0.992,-0.537 1.376,-0.946 0.379,-0.41 0.674,-0.895 0.872,-1.462 0.196,-0.56 0.298,-1.186 0.298,-1.864"
           style="fill:#ffffff;fill-opacity:1;fill-rule:nonzero;stroke:none"
           id="path102"
           inkscape:connector-curvature="0" /><path
           d="m 398.825,23.661 v -1.883 c 0,-0.462 -0.102,-0.807 -0.305,-1.036 -0.211,-0.225 -0.475,-0.34 -0.79,-0.34 -0.311,0 -0.572,0.119 -0.772,0.344 -0.199,0.233 -0.3,0.575 -0.3,1.032 v 6.302 c 0,1.018 0.351,1.524 1.057,1.524 0.354,0 0.619,-0.12 0.78,-0.354 0.157,-0.238 0.24,-0.591 0.261,-1.056 0.259,0.465 0.527,0.818 0.799,1.056 0.271,0.234 0.633,0.354 1.089,0.354 0.46,0 0.898,-0.12 1.333,-0.354 0.424,-0.238 0.644,-0.555 0.644,-0.947 0,-0.279 -0.099,-0.506 -0.279,-0.684 -0.179,-0.178 -0.378,-0.272 -0.591,-0.272 -0.08,0 -0.272,0.054 -0.58,0.158 -0.303,0.102 -0.57,0.153 -0.809,0.153 -0.314,0 -0.575,-0.086 -0.772,-0.263 -0.2,-0.177 -0.358,-0.43 -0.469,-0.773 -0.114,-0.346 -0.192,-0.754 -0.232,-1.23 -0.039,-0.468 -0.064,-1.044 -0.064,-1.731"
           style="fill:#ffffff;fill-opacity:1;fill-rule:nonzero;stroke:none"
           id="path104"
           inkscape:connector-curvature="0" /><path
           d="m 410.382,23.357 c 0,-0.626 -0.142,-1.157 -0.438,-1.608 -0.295,-0.444 -0.725,-0.778 -1.292,-1.007 -0.573,-0.225 -1.261,-0.34 -2.082,-0.34 -0.775,0 -1.444,0.124 -2.006,0.37 -0.556,0.249 -0.965,0.561 -1.228,0.932 -0.265,0.373 -0.403,0.744 -0.403,1.123 0,0.247 0.088,0.46 0.26,0.634 0.169,0.182 0.384,0.268 0.643,0.268 0.228,0 0.4,-0.059 0.525,-0.173 0.124,-0.118 0.235,-0.284 0.351,-0.488 0.224,-0.407 0.487,-0.71 0.8,-0.908 0.306,-0.201 0.732,-0.3 1.266,-0.3 0.435,0 0.789,0.104 1.069,0.303 0.277,0.201 0.424,0.435 0.424,0.691 0,0.402 -0.151,0.693 -0.435,0.871 -0.293,0.189 -0.764,0.362 -1.433,0.525 -0.743,0.196 -1.353,0.401 -1.822,0.609 -0.471,0.219 -0.848,0.498 -1.129,0.845 -0.278,0.346 -0.42,0.776 -0.42,1.283 0,0.459 0.131,0.889 0.39,1.286 0.26,0.406 0.646,0.73 1.149,0.969 0.506,0.242 1.117,0.362 1.834,0.362 0.566,0 1.069,-0.062 1.517,-0.181 0.446,-0.12 0.826,-0.286 1.121,-0.487 0.298,-0.209 0.528,-0.434 0.681,-0.683 0.161,-0.252 0.237,-0.493 0.237,-0.728 0,-0.26 -0.084,-0.47 -0.253,-0.643 -0.165,-0.157 -0.405,-0.244 -0.709,-0.244 -0.225,0 -0.41,0.064 -0.572,0.201 -0.155,0.13 -0.335,0.33 -0.536,0.591 -0.161,0.22 -0.355,0.397 -0.578,0.533 -0.227,0.129 -0.526,0.2 -0.908,0.2 -0.39,0 -0.72,-0.087 -0.977,-0.264 -0.26,-0.174 -0.391,-0.39 -0.391,-0.651 0,-0.24 0.095,-0.434 0.283,-0.586 0.195,-0.151 0.451,-0.276 0.774,-0.378 0.328,-0.099 0.772,-0.222 1.337,-0.367 0.673,-0.17 1.225,-0.371 1.651,-0.611 0.426,-0.239 0.749,-0.516 0.968,-0.844 0.226,-0.323 0.332,-0.69 0.332,-1.105"
           style="fill:#ffffff;fill-opacity:1;fill-rule:nonzero;stroke:none"
           id="path106"
           inkscape:connector-curvature="0" /><path
           d="m 412.849,20.402 c -0.33,0 -0.615,0.106 -0.85,0.328 -0.241,0.221 -0.359,0.532 -0.359,0.93 0,0.334 0.11,0.625 0.339,0.865 0.223,0.246 0.509,0.364 0.842,0.364 0.331,0 0.619,-0.118 0.847,-0.359 0.242,-0.236 0.361,-0.532 0.361,-0.87 0,-0.394 -0.119,-0.702 -0.361,-0.926 -0.228,-0.226 -0.503,-0.332 -0.819,-0.332"
           style="fill:#ffffff;fill-opacity:1;fill-rule:nonzero;stroke:none"
           id="path108"
           inkscape:connector-curvature="0" /><path
           d="m 422.442,24.999 c 0,0.918 -0.196,1.639 -0.587,2.155 -0.39,0.512 -0.911,0.774 -1.569,0.774 -0.421,0 -0.791,-0.119 -1.114,-0.349 -0.328,-0.232 -0.575,-0.571 -0.749,-1.017 -0.173,-0.445 -0.261,-0.964 -0.261,-1.563 0,-0.592 0.084,-1.107 0.257,-1.55 0.174,-0.442 0.418,-0.781 0.74,-1.016 0.32,-0.233 0.699,-0.352 1.127,-0.352 0.658,0 1.179,0.257 1.569,0.773 0.391,0.516 0.587,1.233 0.587,2.145 m 2.18,0 c 0,-0.671 -0.098,-1.294 -0.308,-1.87 -0.2,-0.563 -0.487,-1.052 -0.87,-1.461 -0.383,-0.414 -0.832,-0.717 -1.368,-0.942 -0.527,-0.218 -1.123,-0.324 -1.79,-0.324 -0.654,0 -1.245,0.106 -1.768,0.328 -0.525,0.221 -0.977,0.54 -1.361,0.95 -0.388,0.413 -0.678,0.898 -0.879,1.458 -0.196,0.563 -0.295,1.181 -0.295,1.864 0,0.686 0.099,1.313 0.298,1.88 0.211,0.572 0.49,1.057 0.869,1.463 0.374,0.401 0.83,0.714 1.368,0.929 0.535,0.221 1.122,0.33 1.768,0.33 0.658,0 1.254,-0.109 1.79,-0.333 0.536,-0.216 0.995,-0.537 1.376,-0.946 0.381,-0.41 0.67,-0.895 0.874,-1.462 0.198,-0.56 0.296,-1.186 0.296,-1.864"
           style="fill:#ffffff;fill-opacity:1;fill-rule:nonzero;stroke:none"
           id="path110"
           inkscape:connector-curvature="0" /><path
           d="m 428.485,23.661 v -1.883 c 0,-0.462 -0.102,-0.807 -0.308,-1.036 -0.204,-0.225 -0.467,-0.34 -0.783,-0.34 -0.321,0 -0.573,0.119 -0.777,0.344 -0.202,0.233 -0.299,0.575 -0.299,1.032 v 6.302 c 0,1.018 0.355,1.524 1.056,1.524 0.362,0 0.619,-0.12 0.776,-0.354 0.158,-0.238 0.252,-0.591 0.269,-1.056 0.255,0.465 0.519,0.818 0.791,1.056 0.277,0.234 0.643,0.354 1.092,0.354 0.466,0 0.906,-0.12 1.332,-0.354 0.426,-0.238 0.646,-0.555 0.646,-0.947 0,-0.279 -0.093,-0.506 -0.275,-0.684 -0.186,-0.178 -0.379,-0.272 -0.595,-0.272 -0.078,0 -0.269,0.054 -0.572,0.158 -0.308,0.102 -0.574,0.153 -0.813,0.153 -0.313,0 -0.574,-0.086 -0.778,-0.263 -0.198,-0.177 -0.356,-0.43 -0.467,-0.773 -0.11,-0.346 -0.189,-0.754 -0.232,-1.23 -0.039,-0.468 -0.063,-1.044 -0.063,-1.731"
           style="fill:#ffffff;fill-opacity:1;fill-rule:nonzero;stroke:none"
           id="path112"
           inkscape:connector-curvature="0" /><path
           d="m 434.752,25.078 c 0,-0.919 0.189,-1.613 0.575,-2.086 0.383,-0.467 0.883,-0.707 1.486,-0.707 0.359,0 0.706,0.109 1.025,0.308 0.318,0.206 0.583,0.506 0.784,0.912 0.201,0.409 0.3,0.902 0.3,1.481 0,0.923 -0.198,1.639 -0.584,2.157 -0.39,0.515 -0.903,0.772 -1.535,0.772 -0.62,0 -1.117,-0.249 -1.488,-0.737 -0.377,-0.496 -0.563,-1.196 -0.563,-2.1 m 6.286,2.868 v -6.578 c 0,-0.752 -0.081,-1.403 -0.232,-1.938 -0.155,-0.549 -0.404,-0.994 -0.738,-1.35 -0.339,-0.35 -0.789,-0.614 -1.332,-0.789 -0.548,-0.164 -1.228,-0.25 -2.046,-0.25 -0.749,0 -1.418,0.105 -2.002,0.321 -0.59,0.227 -1.044,0.502 -1.359,0.853 -0.317,0.342 -0.48,0.697 -0.48,1.063 0,0.283 0.089,0.506 0.271,0.68 0.181,0.173 0.399,0.263 0.651,0.263 0.319,0 0.594,-0.15 0.836,-0.441 0.118,-0.155 0.239,-0.303 0.362,-0.454 0.121,-0.153 0.26,-0.284 0.414,-0.389 0.149,-0.111 0.336,-0.19 0.547,-0.245 0.206,-0.051 0.455,-0.078 0.73,-0.078 0.559,0 1.001,0.085 1.308,0.247 0.306,0.161 0.524,0.391 0.651,0.678 0.122,0.296 0.199,0.607 0.212,0.942 0.027,0.338 0.04,0.875 0.055,1.616 -0.335,-0.481 -0.724,-0.856 -1.158,-1.108 -0.434,-0.255 -0.958,-0.378 -1.557,-0.378 -0.734,0 -1.367,0.19 -1.908,0.58 -0.544,0.385 -0.962,0.925 -1.251,1.628 -0.29,0.689 -0.439,1.496 -0.439,2.411 0,0.683 0.085,1.297 0.267,1.845 0.174,0.544 0.427,1.005 0.762,1.384 0.322,0.373 0.705,0.656 1.134,0.851 0.429,0.189 0.895,0.284 1.414,0.284 0.612,0 1.148,-0.121 1.597,-0.37 0.453,-0.245 0.867,-0.636 1.253,-1.16 v 0.308 c 0,0.395 0.098,0.694 0.279,0.919 0.186,0.211 0.426,0.322 0.715,0.322 0.422,0 0.702,-0.14 0.84,-0.43 0.134,-0.284 0.204,-0.697 0.204,-1.237"
           style="fill:#ffffff;fill-opacity:1;fill-rule:nonzero;stroke:none"
           id="path114"
           inkscape:connector-curvature="0" /><path
           d="m 347,50 h 3.221 c -0.229,-1.739 -0.938,-3.093 -2.124,-4.064 -1.097,-0.958 -2.422,-1.427 -3.969,-1.427 -2.102,0 -3.775,0.735 -5.029,2.21 -1.188,1.403 -1.782,3.212 -1.782,5.423 0,2.262 0.59,4.075 1.766,5.447 1.17,1.363 2.833,2.05 4.974,2.05 1.594,0 2.943,-0.43 4.04,-1.285 1.162,-0.927 1.871,-2.227 2.124,-3.89 H 347 c -0.275,1.451 -1.167,2.177 -2.675,2.177 -2.488,0 -3.732,-1.476 -3.732,-4.423 0,-1.384 0.318,-2.512 0.961,-3.39 0.638,-0.883 1.541,-1.325 2.705,-1.325 1.732,0 2.646,0.832 2.741,2.497 m -12.67,2.027 c 0,-2.88 0.913,-5.321 2.737,-7.302 1.825,-1.99 4.061,-2.984 6.714,-2.984 2.64,0 4.878,0.994 6.704,2.984 1.825,1.981 2.735,4.422 2.735,7.302 0,2.878 -0.91,5.314 -2.735,7.3 -1.826,1.991 -4.064,2.985 -6.704,2.985 -2.653,0 -4.889,-0.994 -6.714,-2.985 -1.824,-1.986 -2.737,-4.422 -2.737,-7.3 m -3.268,0 c 0,3.666 1.24,6.792 3.724,9.394 2.485,2.593 5.483,3.889 8.995,3.889 3.508,0 6.499,-1.296 8.99,-3.889 2.484,-2.602 3.729,-5.728 3.729,-9.394 0,-3.664 -1.245,-6.797 -3.729,-9.395 -2.491,-2.594 -5.482,-3.895 -8.99,-3.895 -3.511,0 -6.51,1.301 -8.994,3.895 -2.485,2.598 -3.725,5.731 -3.725,9.395"
           style="fill:#ffffff;fill-opacity:1;fill-rule:nonzero;stroke:none"
           id="path116"
           inkscape:connector-curvature="0" /><path
           d="m 336.209,43.696 1.853,-1.573 13.64,17.516 -1.852,1.574 z"
           style="fill:#ffffff;fill-opacity:1;fill-rule:nonzero;stroke:none"
           id="path118"
           inkscape:connector-curvature="0" /></g></g></g></svg>